<?xml version="1.0" encoding="utf-8"?>
<!-- Generator: Adobe Illustrator 27.4.0, SVG Export Plug-In . SVG Version: 6.00 Build 0)  -->
<svg version="1.1" id="FAB" xmlns="http://www.w3.org/2000/svg" xmlns:xlink="http://www.w3.org/1999/xlink" x="0px" y="0px"
	 viewBox="0 0 2882 1841" style="enable-background:new 0 0 2882 1841;" xml:space="preserve">
<style type="text/css">
	.st0{fill:#FFFFFF;}
</style>
<g>
	<g>
		<g>
			<g>
				<g>
					<path class="st0" d="M2829.7,864.6c18.2-12,31.3-26.8,39.3-44.5s12-39.6,12-65.8c0-34.5-10.6-63.1-31.7-85.9
						c-62.6,183.7-215.4,379.1-433.5,557.9h175.4c108.9,0,183.2-24.5,223.1-73.5c27.9-33.6,41.9-79.2,41.9-136.8
						c0-32.5-9-57.8-26.9-76.1c-18-18.2-42.3-31.6-73.1-40.2l0.9-8.5C2784.4,887.1,2808.6,878.3,2829.7,864.6z"/>
					<path class="st0" d="M462.6,615.8H131.4L14.6,1226.3C63.7,1027.8,223.8,811.8,462.6,615.8z"/>
					<path class="st0" d="M1490,1170.7h-324.9l-38.5,55.6H748.7l104.8-146.2h-469l-28.2,146.2H14.6
						c-19.1,99.8-21.3,195.3,14.4,281.5c161.6,391,924.3,445,1703.5,120.6c265-110.3,497.8-250.2,683.3-402.2H1508L1490,1170.7z"/>
					<polygon class="st0" points="1381.4,852.6 1274.5,1009.1 1437.8,1009.1 1387.4,852.6 					"/>
					<path class="st0" d="M949.6,831.3H432.4l-13.7,70.1h489l-27.8,141.9l306.6-427.5h472.8l191.1,568.4l109.9-568.4h718.2
						c70.1,0,121.4,12.4,153.9,37.2c6.3,4.8,11.9,9.9,17,15.4c40.7-119.3,43.4-233.6,1.4-335.2c-161.6-391-924.3-445-1703.5-120.6
						c-265.7,110.5-499,250.8-684.7,403.2h528.1L949.6,831.3z"/>
					<path class="st0" d="M2468.1,779.1h-197.5l-15.4,78.7h197.5c20.5,0,35.6-6,45.3-18c8-9.7,12-19.4,12-29.1
						C2509.9,789.7,2496,779.1,2468.1,779.1z"/>
					<path class="st0" d="M2438.1,986.9h-207.8l-16.2,83.8H2421c22.8,0,39-6.3,48.7-18.8c3.4-4.6,6.3-9.7,8.6-15.4
						c2.3-5.7,3.4-10.8,3.4-15.4C2481.7,998.3,2467.2,986.9,2438.1,986.9z"/>
				</g>
				<g>
					<path class="st0" d="M2829.7,864.6c18.2-12,31.3-26.8,39.3-44.5s12-39.6,12-65.8c0-34.5-10.6-63.1-31.7-85.9
						c-62.6,183.7-215.4,379.1-433.5,557.9h175.4c108.9,0,183.2-24.5,223.1-73.5c27.9-33.6,41.9-79.2,41.9-136.8
						c0-32.5-9-57.8-26.9-76.1c-18-18.2-42.3-31.6-73.1-40.2l0.9-8.5C2784.4,887.1,2808.6,878.3,2829.7,864.6z"/>
					<path class="st0" d="M462.6,615.8H131.4L14.6,1226.3C63.7,1027.8,223.8,811.8,462.6,615.8z"/>
					<path class="st0" d="M1490,1170.7h-324.9l-38.5,55.6H748.7l104.8-146.2h-469l-28.2,146.2H14.6
						c-19.1,99.8-21.3,195.3,14.4,281.5c161.6,391,924.3,445,1703.5,120.6c265-110.3,497.8-250.2,683.3-402.2H1508L1490,1170.7z"/>
					<polygon class="st0" points="1381.4,852.6 1274.5,1009.1 1437.8,1009.1 1387.4,852.6 					"/>
					<path class="st0" d="M949.6,831.3H432.4l-13.7,70.1h489l-27.8,141.9l306.6-427.5h472.8l191.1,568.4l109.9-568.4h718.2
						c70.1,0,121.4,12.4,153.9,37.2c6.3,4.8,11.9,9.9,17,15.4c40.7-119.3,43.4-233.6,1.4-335.2c-161.6-391-924.3-445-1703.5-120.6
						c-265.7,110.5-499,250.8-684.7,403.2h528.1L949.6,831.3z"/>
					<path class="st0" d="M2468.1,779.1h-197.5l-15.4,78.7h197.5c20.5,0,35.6-6,45.3-18c8-9.7,12-19.4,12-29.1
						C2509.9,789.7,2496,779.1,2468.1,779.1z"/>
					<path class="st0" d="M2438.1,986.9h-207.8l-16.2,83.8H2421c22.8,0,39-6.3,48.7-18.8c3.4-4.6,6.3-9.7,8.6-15.4
						c2.3-5.7,3.4-10.8,3.4-15.4C2481.7,998.3,2467.2,986.9,2438.1,986.9z"/>
				</g>
			</g>
			<g>
				<g>
					<path class="st0" d="M2829.7,864.6c18.2-12,31.3-26.8,39.3-44.5s12-39.6,12-65.8c0-34.5-10.6-63.1-31.7-85.9
						c-62.6,183.7-215.4,379.1-433.5,557.9h175.4c108.9,0,183.2-24.5,223.1-73.5c27.9-33.6,41.9-79.2,41.9-136.8
						c0-32.5-9-57.8-26.9-76.1c-18-18.2-42.3-31.6-73.1-40.2l0.9-8.5C2784.4,887.1,2808.6,878.3,2829.7,864.6z"/>
					<path class="st0" d="M462.6,615.8H131.4L14.6,1226.3C63.7,1027.8,223.8,811.8,462.6,615.8z"/>
					<path class="st0" d="M1490,1170.7h-324.9l-38.5,55.6H748.7l104.8-146.2h-469l-28.2,146.2H14.6
						c-19.1,99.8-21.3,195.3,14.4,281.5c161.6,391,924.3,445,1703.5,120.6c265-110.3,497.8-250.2,683.3-402.2H1508L1490,1170.7z"/>
					<polygon class="st0" points="1381.4,852.6 1274.5,1009.1 1437.8,1009.1 1387.4,852.6 					"/>
					<path class="st0" d="M949.6,831.3H432.4l-13.7,70.1h489l-27.8,141.9l306.6-427.5h472.8l191.1,568.4l109.9-568.4h718.2
						c70.1,0,121.4,12.4,153.9,37.2c6.3,4.8,11.9,9.9,17,15.4c40.7-119.3,43.4-233.6,1.4-335.2c-161.6-391-924.3-445-1703.5-120.6
						c-265.7,110.5-499,250.8-684.7,403.2h528.1L949.6,831.3z"/>
					<path class="st0" d="M2468.1,779.1h-197.5l-15.4,78.7h197.5c20.5,0,35.6-6,45.3-18c8-9.7,12-19.4,12-29.1
						C2509.9,789.7,2496,779.1,2468.1,779.1z"/>
					<path class="st0" d="M2438.1,986.9h-207.8l-16.2,83.8H2421c22.8,0,39-6.3,48.7-18.8c3.4-4.6,6.3-9.7,8.6-15.4
						c2.3-5.7,3.4-10.8,3.4-15.4C2481.7,998.3,2467.2,986.9,2438.1,986.9z"/>
				</g>
				<g>
					<path class="st0" d="M2829.7,864.6c18.2-12,31.3-26.8,39.3-44.5s12-39.6,12-65.8c0-34.5-10.6-63.1-31.7-85.9
						c-62.6,183.7-215.4,379.1-433.5,557.9h175.4c108.9,0,183.2-24.5,223.1-73.5c27.9-33.6,41.9-79.2,41.9-136.8
						c0-32.5-9-57.8-26.9-76.1c-18-18.2-42.3-31.6-73.1-40.2l0.9-8.5C2784.4,887.1,2808.6,878.3,2829.7,864.6z"/>
					<path class="st0" d="M462.6,615.8H131.4L14.6,1226.3C63.7,1027.8,223.8,811.8,462.6,615.8z"/>
					<path class="st0" d="M1490,1170.7h-324.9l-38.5,55.6H748.7l104.8-146.2h-469l-28.2,146.2H14.6
						c-19.1,99.8-21.3,195.3,14.4,281.5c161.6,391,924.3,445,1703.5,120.6c265-110.3,497.8-250.2,683.3-402.2H1508L1490,1170.7z"/>
					<polygon class="st0" points="1381.4,852.6 1274.5,1009.1 1437.8,1009.1 1387.4,852.6 					"/>
					<path class="st0" d="M949.6,831.3H432.4l-13.7,70.1h489l-27.8,141.9l306.6-427.5h472.8l191.1,568.4l109.9-568.4h718.2
						c70.1,0,121.4,12.4,153.9,37.2c6.3,4.8,11.9,9.9,17,15.4c40.7-119.3,43.4-233.6,1.4-335.2c-161.6-391-924.3-445-1703.5-120.6
						c-265.7,110.5-499,250.8-684.7,403.2h528.1L949.6,831.3z"/>
					<path class="st0" d="M2468.1,779.1h-197.5l-15.4,78.7h197.5c20.5,0,35.6-6,45.3-18c8-9.7,12-19.4,12-29.1
						C2509.9,789.7,2496,779.1,2468.1,779.1z"/>
					<path class="st0" d="M2438.1,986.9h-207.8l-16.2,83.8H2421c22.8,0,39-6.3,48.7-18.8c3.4-4.6,6.3-9.7,8.6-15.4
						c2.3-5.7,3.4-10.8,3.4-15.4C2481.7,998.3,2467.2,986.9,2438.1,986.9z"/>
				</g>
			</g>
		</g>
		<g>
			<g>
				<g>
					<path class="st0" d="M2829.7,864.6c18.2-12,31.3-26.8,39.3-44.5s12-39.6,12-65.8c0-34.5-10.6-63.1-31.7-85.9
						c-62.6,183.7-215.4,379.1-433.5,557.9h175.4c108.9,0,183.2-24.5,223.1-73.5c27.9-33.6,41.9-79.2,41.9-136.8
						c0-32.5-9-57.8-26.9-76.1c-18-18.2-42.3-31.6-73.1-40.2l0.9-8.5C2784.4,887.1,2808.6,878.3,2829.7,864.6z"/>
					<path class="st0" d="M462.6,615.8H131.4L14.6,1226.3C63.7,1027.8,223.8,811.8,462.6,615.8z"/>
					<path class="st0" d="M1490,1170.7h-324.9l-38.5,55.6H748.7l104.8-146.2h-469l-28.2,146.2H14.6
						c-19.1,99.8-21.3,195.3,14.4,281.5c161.6,391,924.3,445,1703.5,120.6c265-110.3,497.8-250.2,683.3-402.2H1508L1490,1170.7z"/>
					<polygon class="st0" points="1381.4,852.6 1274.5,1009.1 1437.8,1009.1 1387.4,852.6 					"/>
					<path class="st0" d="M949.6,831.3H432.4l-13.7,70.1h489l-27.8,141.9l306.6-427.5h472.8l191.1,568.4l109.9-568.4h718.2
						c70.1,0,121.4,12.4,153.9,37.2c6.3,4.8,11.9,9.9,17,15.4c40.7-119.3,43.4-233.6,1.4-335.2c-161.6-391-924.3-445-1703.5-120.6
						c-265.7,110.5-499,250.8-684.7,403.2h528.1L949.6,831.3z"/>
					<path class="st0" d="M2468.1,779.1h-197.5l-15.4,78.7h197.5c20.5,0,35.6-6,45.3-18c8-9.7,12-19.4,12-29.1
						C2509.9,789.7,2496,779.1,2468.1,779.1z"/>
					<path class="st0" d="M2438.1,986.9h-207.8l-16.2,83.8H2421c22.8,0,39-6.3,48.7-18.8c3.4-4.6,6.3-9.7,8.6-15.4
						c2.3-5.7,3.4-10.8,3.4-15.4C2481.7,998.3,2467.2,986.9,2438.1,986.9z"/>
				</g>
				<g>
					<path class="st0" d="M2829.7,864.6c18.2-12,31.3-26.8,39.3-44.5s12-39.6,12-65.8c0-34.5-10.6-63.1-31.7-85.9
						c-62.6,183.7-215.4,379.1-433.5,557.9h175.4c108.9,0,183.2-24.5,223.1-73.5c27.9-33.6,41.9-79.2,41.9-136.8
						c0-32.5-9-57.8-26.9-76.1c-18-18.2-42.3-31.6-73.1-40.2l0.9-8.5C2784.4,887.1,2808.6,878.3,2829.7,864.6z"/>
					<path class="st0" d="M462.6,615.8H131.4L14.6,1226.3C63.7,1027.8,223.8,811.8,462.6,615.8z"/>
					<path class="st0" d="M1490,1170.7h-324.9l-38.5,55.6H748.7l104.8-146.2h-469l-28.2,146.2H14.6
						c-19.1,99.8-21.3,195.3,14.4,281.5c161.6,391,924.3,445,1703.5,120.6c265-110.3,497.8-250.2,683.3-402.2H1508L1490,1170.7z"/>
					<polygon class="st0" points="1381.4,852.6 1274.5,1009.1 1437.8,1009.1 1387.4,852.6 					"/>
					<path class="st0" d="M949.6,831.3H432.4l-13.7,70.1h489l-27.8,141.9l306.6-427.5h472.8l191.1,568.4l109.9-568.4h718.2
						c70.1,0,121.4,12.4,153.9,37.2c6.3,4.8,11.9,9.9,17,15.4c40.7-119.3,43.4-233.6,1.4-335.2c-161.6-391-924.3-445-1703.5-120.6
						c-265.7,110.5-499,250.8-684.7,403.2h528.1L949.6,831.3z"/>
					<path class="st0" d="M2468.1,779.1h-197.5l-15.4,78.7h197.5c20.5,0,35.6-6,45.3-18c8-9.7,12-19.4,12-29.1
						C2509.9,789.7,2496,779.1,2468.1,779.1z"/>
					<path class="st0" d="M2438.1,986.9h-207.8l-16.2,83.8H2421c22.8,0,39-6.3,48.7-18.8c3.4-4.6,6.3-9.7,8.6-15.4
						c2.3-5.7,3.4-10.8,3.4-15.4C2481.7,998.3,2467.2,986.9,2438.1,986.9z"/>
				</g>
			</g>
			<g>
				<g>
					<path class="st0" d="M2829.7,864.6c18.2-12,31.3-26.8,39.3-44.5s12-39.6,12-65.8c0-34.5-10.6-63.1-31.7-85.9
						c-62.6,183.7-215.4,379.1-433.5,557.9h175.4c108.9,0,183.2-24.5,223.1-73.5c27.9-33.6,41.9-79.2,41.9-136.8
						c0-32.5-9-57.8-26.9-76.1c-18-18.2-42.3-31.6-73.1-40.2l0.9-8.5C2784.4,887.1,2808.6,878.3,2829.7,864.6z"/>
					<path class="st0" d="M462.6,615.8H131.4L14.6,1226.3C63.7,1027.8,223.8,811.8,462.6,615.8z"/>
					<path class="st0" d="M1490,1170.7h-324.9l-38.5,55.6H748.7l104.8-146.2h-469l-28.2,146.2H14.6
						c-19.1,99.8-21.3,195.3,14.4,281.5c161.6,391,924.3,445,1703.5,120.6c265-110.3,497.8-250.2,683.3-402.2H1508L1490,1170.7z"/>
					<polygon class="st0" points="1381.4,852.6 1274.5,1009.1 1437.8,1009.1 1387.4,852.6 					"/>
					<path class="st0" d="M949.6,831.3H432.4l-13.7,70.1h489l-27.8,141.9l306.6-427.5h472.8l191.1,568.4l109.9-568.4h718.2
						c70.1,0,121.4,12.4,153.9,37.2c6.3,4.8,11.9,9.9,17,15.4c40.7-119.3,43.4-233.6,1.4-335.2c-161.6-391-924.3-445-1703.5-120.6
						c-265.7,110.5-499,250.8-684.7,403.2h528.1L949.6,831.3z"/>
					<path class="st0" d="M2468.1,779.1h-197.5l-15.4,78.7h197.5c20.5,0,35.6-6,45.3-18c8-9.7,12-19.4,12-29.1
						C2509.9,789.7,2496,779.1,2468.1,779.1z"/>
					<path class="st0" d="M2438.1,986.9h-207.8l-16.2,83.8H2421c22.8,0,39-6.3,48.7-18.8c3.4-4.6,6.3-9.7,8.6-15.4
						c2.3-5.7,3.4-10.8,3.4-15.4C2481.7,998.3,2467.2,986.9,2438.1,986.9z"/>
				</g>
				<g>
					<path class="st0" d="M2829.7,864.6c18.2-12,31.3-26.8,39.3-44.5s12-39.6,12-65.8c0-34.5-10.6-63.1-31.7-85.9
						c-62.6,183.7-215.4,379.1-433.5,557.9h175.4c108.9,0,183.2-24.5,223.1-73.5c27.9-33.6,41.9-79.2,41.9-136.8
						c0-32.5-9-57.8-26.9-76.1c-18-18.2-42.3-31.6-73.1-40.2l0.9-8.5C2784.4,887.1,2808.6,878.3,2829.7,864.6z"/>
					<path class="st0" d="M462.6,615.8H131.4L14.6,1226.3C63.7,1027.8,223.8,811.8,462.6,615.8z"/>
					<path class="st0" d="M1490,1170.7h-324.9l-38.5,55.6H748.7l104.8-146.2h-469l-28.2,146.2H14.6
						c-19.1,99.8-21.3,195.3,14.4,281.5c161.6,391,924.3,445,1703.5,120.6c265-110.3,497.8-250.2,683.3-402.2H1508L1490,1170.7z"/>
					<polygon class="st0" points="1381.4,852.6 1274.5,1009.1 1437.8,1009.1 1387.4,852.6 					"/>
					<path class="st0" d="M949.6,831.3H432.4l-13.7,70.1h489l-27.8,141.9l306.6-427.5h472.8l191.1,568.4l109.9-568.4h718.2
						c70.1,0,121.4,12.4,153.9,37.2c6.3,4.8,11.9,9.9,17,15.4c40.7-119.3,43.4-233.6,1.4-335.2c-161.6-391-924.3-445-1703.5-120.6
						c-265.7,110.5-499,250.8-684.7,403.2h528.1L949.6,831.3z"/>
					<path class="st0" d="M2468.1,779.1h-197.5l-15.4,78.7h197.5c20.5,0,35.6-6,45.3-18c8-9.7,12-19.4,12-29.1
						C2509.9,789.7,2496,779.1,2468.1,779.1z"/>
					<path class="st0" d="M2438.1,986.9h-207.8l-16.2,83.8H2421c22.8,0,39-6.3,48.7-18.8c3.4-4.6,6.3-9.7,8.6-15.4
						c2.3-5.7,3.4-10.8,3.4-15.4C2481.7,998.3,2467.2,986.9,2438.1,986.9z"/>
				</g>
			</g>
		</g>
	</g>
	<g>
		<g>
			<g>
				<g>
					<path class="st0" d="M2829.7,864.6c18.2-12,31.3-26.8,39.3-44.5s12-39.6,12-65.8c0-34.5-10.6-63.1-31.7-85.9
						c-62.6,183.7-215.4,379.1-433.5,557.9h175.4c108.9,0,183.2-24.5,223.1-73.5c27.9-33.6,41.9-79.2,41.9-136.8
						c0-32.5-9-57.8-26.9-76.1c-18-18.2-42.3-31.6-73.1-40.2l0.9-8.5C2784.4,887.1,2808.6,878.3,2829.7,864.6z"/>
					<path class="st0" d="M462.6,615.8H131.4L14.6,1226.3C63.7,1027.8,223.8,811.8,462.6,615.8z"/>
					<path class="st0" d="M1490,1170.7h-324.9l-38.5,55.6H748.7l104.8-146.2h-469l-28.2,146.2H14.6
						c-19.1,99.8-21.3,195.3,14.4,281.5c161.6,391,924.3,445,1703.5,120.6c265-110.3,497.8-250.2,683.3-402.2H1508L1490,1170.7z"/>
					<polygon class="st0" points="1381.4,852.6 1274.5,1009.1 1437.8,1009.1 1387.4,852.6 					"/>
					<path class="st0" d="M949.6,831.3H432.4l-13.7,70.1h489l-27.8,141.9l306.6-427.5h472.8l191.1,568.4l109.9-568.4h718.2
						c70.1,0,121.4,12.4,153.9,37.2c6.3,4.8,11.9,9.9,17,15.4c40.7-119.3,43.4-233.6,1.4-335.2c-161.6-391-924.3-445-1703.5-120.6
						c-265.7,110.5-499,250.8-684.7,403.2h528.1L949.6,831.3z"/>
					<path class="st0" d="M2468.1,779.1h-197.5l-15.4,78.7h197.5c20.5,0,35.6-6,45.3-18c8-9.7,12-19.4,12-29.1
						C2509.9,789.7,2496,779.1,2468.1,779.1z"/>
					<path class="st0" d="M2438.1,986.9h-207.8l-16.2,83.8H2421c22.8,0,39-6.3,48.7-18.8c3.4-4.6,6.3-9.7,8.6-15.4
						c2.3-5.7,3.4-10.8,3.4-15.4C2481.7,998.3,2467.2,986.9,2438.1,986.9z"/>
				</g>
				<g>
					<path class="st0" d="M2829.7,864.6c18.2-12,31.3-26.8,39.3-44.5s12-39.6,12-65.8c0-34.5-10.6-63.1-31.7-85.9
						c-62.6,183.7-215.4,379.1-433.5,557.9h175.4c108.9,0,183.2-24.5,223.1-73.5c27.9-33.6,41.9-79.2,41.9-136.8
						c0-32.5-9-57.8-26.9-76.1c-18-18.2-42.3-31.6-73.1-40.2l0.9-8.5C2784.4,887.1,2808.6,878.3,2829.7,864.6z"/>
					<path class="st0" d="M462.6,615.8H131.4L14.6,1226.3C63.7,1027.8,223.8,811.8,462.6,615.8z"/>
					<path class="st0" d="M1490,1170.7h-324.9l-38.5,55.6H748.7l104.8-146.2h-469l-28.2,146.2H14.6
						c-19.1,99.8-21.3,195.3,14.4,281.5c161.6,391,924.3,445,1703.5,120.6c265-110.3,497.8-250.2,683.3-402.2H1508L1490,1170.7z"/>
					<polygon class="st0" points="1381.4,852.6 1274.5,1009.1 1437.8,1009.1 1387.4,852.6 					"/>
					<path class="st0" d="M949.6,831.3H432.4l-13.7,70.1h489l-27.8,141.9l306.6-427.5h472.8l191.1,568.4l109.9-568.4h718.2
						c70.1,0,121.4,12.4,153.9,37.2c6.3,4.8,11.9,9.9,17,15.4c40.7-119.3,43.4-233.6,1.4-335.2c-161.6-391-924.3-445-1703.5-120.6
						c-265.7,110.5-499,250.8-684.7,403.2h528.1L949.6,831.3z"/>
					<path class="st0" d="M2468.1,779.1h-197.5l-15.4,78.7h197.5c20.5,0,35.6-6,45.3-18c8-9.7,12-19.4,12-29.1
						C2509.9,789.7,2496,779.1,2468.1,779.1z"/>
					<path class="st0" d="M2438.1,986.9h-207.8l-16.2,83.8H2421c22.8,0,39-6.3,48.7-18.8c3.4-4.6,6.3-9.7,8.6-15.4
						c2.3-5.7,3.4-10.8,3.4-15.4C2481.7,998.3,2467.2,986.9,2438.1,986.9z"/>
				</g>
			</g>
			<g>
				<g>
					<path class="st0" d="M2829.7,864.6c18.2-12,31.3-26.8,39.3-44.5s12-39.6,12-65.8c0-34.5-10.6-63.1-31.7-85.9
						c-62.6,183.7-215.4,379.1-433.5,557.9h175.4c108.9,0,183.2-24.5,223.1-73.5c27.9-33.6,41.9-79.2,41.9-136.8
						c0-32.5-9-57.8-26.9-76.1c-18-18.2-42.3-31.6-73.1-40.2l0.9-8.5C2784.4,887.1,2808.6,878.3,2829.7,864.6z"/>
					<path class="st0" d="M462.6,615.8H131.4L14.6,1226.3C63.7,1027.8,223.8,811.8,462.6,615.8z"/>
					<path class="st0" d="M1490,1170.7h-324.9l-38.5,55.6H748.7l104.8-146.2h-469l-28.2,146.2H14.6
						c-19.1,99.8-21.3,195.3,14.4,281.5c161.6,391,924.3,445,1703.5,120.6c265-110.3,497.8-250.2,683.3-402.2H1508L1490,1170.7z"/>
					<polygon class="st0" points="1381.4,852.6 1274.5,1009.1 1437.8,1009.1 1387.4,852.6 					"/>
					<path class="st0" d="M949.6,831.3H432.4l-13.7,70.1h489l-27.8,141.9l306.6-427.5h472.8l191.1,568.4l109.9-568.4h718.2
						c70.1,0,121.4,12.4,153.9,37.2c6.3,4.8,11.9,9.9,17,15.4c40.7-119.3,43.4-233.6,1.4-335.2c-161.6-391-924.3-445-1703.5-120.6
						c-265.7,110.5-499,250.8-684.7,403.2h528.1L949.6,831.3z"/>
					<path class="st0" d="M2468.1,779.1h-197.5l-15.4,78.7h197.5c20.5,0,35.6-6,45.3-18c8-9.7,12-19.4,12-29.1
						C2509.9,789.7,2496,779.1,2468.1,779.1z"/>
					<path class="st0" d="M2438.1,986.9h-207.8l-16.2,83.8H2421c22.8,0,39-6.3,48.7-18.8c3.4-4.6,6.3-9.7,8.6-15.4
						c2.3-5.7,3.4-10.8,3.4-15.4C2481.7,998.3,2467.2,986.9,2438.1,986.9z"/>
				</g>
				<g>
					<path class="st0" d="M2829.7,864.6c18.2-12,31.3-26.8,39.3-44.5s12-39.6,12-65.8c0-34.5-10.6-63.1-31.7-85.9
						c-62.6,183.7-215.4,379.1-433.5,557.9h175.4c108.9,0,183.2-24.5,223.1-73.5c27.9-33.6,41.9-79.2,41.9-136.8
						c0-32.5-9-57.8-26.9-76.1c-18-18.2-42.3-31.6-73.1-40.2l0.9-8.5C2784.4,887.1,2808.6,878.3,2829.7,864.6z"/>
					<path class="st0" d="M462.6,615.8H131.4L14.6,1226.3C63.7,1027.8,223.8,811.8,462.6,615.8z"/>
					<path class="st0" d="M1490,1170.7h-324.9l-38.5,55.6H748.7l104.8-146.2h-469l-28.2,146.2H14.6
						c-19.1,99.8-21.3,195.3,14.4,281.5c161.6,391,924.3,445,1703.5,120.6c265-110.3,497.8-250.2,683.3-402.2H1508L1490,1170.7z"/>
					<polygon class="st0" points="1381.4,852.6 1274.5,1009.1 1437.8,1009.1 1387.4,852.6 					"/>
					<path class="st0" d="M949.6,831.3H432.4l-13.7,70.1h489l-27.8,141.9l306.6-427.5h472.8l191.1,568.4l109.9-568.4h718.2
						c70.1,0,121.4,12.4,153.9,37.2c6.3,4.8,11.9,9.9,17,15.4c40.7-119.3,43.4-233.6,1.4-335.2c-161.6-391-924.3-445-1703.5-120.6
						c-265.7,110.5-499,250.8-684.7,403.2h528.1L949.6,831.3z"/>
					<path class="st0" d="M2468.1,779.1h-197.5l-15.4,78.7h197.5c20.5,0,35.6-6,45.3-18c8-9.7,12-19.4,12-29.1
						C2509.9,789.7,2496,779.1,2468.1,779.1z"/>
					<path class="st0" d="M2438.1,986.9h-207.8l-16.2,83.8H2421c22.8,0,39-6.3,48.7-18.8c3.4-4.6,6.3-9.7,8.6-15.4
						c2.3-5.7,3.4-10.8,3.4-15.4C2481.7,998.3,2467.2,986.9,2438.1,986.9z"/>
				</g>
			</g>
		</g>
		<g>
			<g>
				<g>
					<path class="st0" d="M2829.7,864.6c18.2-12,31.3-26.8,39.3-44.5s12-39.6,12-65.8c0-34.5-10.6-63.1-31.7-85.9
						c-62.6,183.7-215.4,379.1-433.5,557.9h175.4c108.9,0,183.2-24.5,223.1-73.5c27.9-33.6,41.9-79.2,41.9-136.8
						c0-32.5-9-57.8-26.9-76.1c-18-18.2-42.3-31.6-73.1-40.2l0.9-8.5C2784.4,887.1,2808.6,878.3,2829.7,864.6z"/>
					<path class="st0" d="M462.6,615.8H131.4L14.6,1226.3C63.7,1027.8,223.8,811.8,462.6,615.8z"/>
					<path class="st0" d="M1490,1170.7h-324.9l-38.5,55.6H748.7l104.8-146.2h-469l-28.2,146.2H14.6
						c-19.1,99.8-21.3,195.3,14.4,281.5c161.6,391,924.3,445,1703.5,120.6c265-110.3,497.8-250.2,683.3-402.2H1508L1490,1170.7z"/>
					<polygon class="st0" points="1381.4,852.6 1274.5,1009.1 1437.8,1009.1 1387.4,852.6 					"/>
					<path class="st0" d="M949.6,831.3H432.4l-13.7,70.1h489l-27.8,141.9l306.6-427.5h472.8l191.1,568.4l109.9-568.4h718.2
						c70.1,0,121.4,12.4,153.9,37.2c6.3,4.8,11.9,9.9,17,15.4c40.7-119.3,43.4-233.6,1.4-335.2c-161.6-391-924.3-445-1703.5-120.6
						c-265.7,110.5-499,250.8-684.7,403.2h528.1L949.6,831.3z"/>
					<path class="st0" d="M2468.1,779.1h-197.5l-15.4,78.7h197.5c20.5,0,35.6-6,45.3-18c8-9.7,12-19.4,12-29.1
						C2509.9,789.7,2496,779.1,2468.1,779.1z"/>
					<path class="st0" d="M2438.1,986.9h-207.8l-16.2,83.8H2421c22.8,0,39-6.3,48.7-18.8c3.4-4.6,6.3-9.7,8.6-15.4
						c2.3-5.7,3.4-10.8,3.4-15.4C2481.7,998.3,2467.2,986.9,2438.1,986.9z"/>
				</g>
				<g>
					<path class="st0" d="M2829.7,864.6c18.2-12,31.3-26.8,39.3-44.5s12-39.6,12-65.8c0-34.5-10.6-63.1-31.7-85.9
						c-62.6,183.7-215.4,379.1-433.5,557.9h175.4c108.9,0,183.2-24.5,223.1-73.5c27.9-33.6,41.9-79.2,41.9-136.8
						c0-32.5-9-57.8-26.9-76.1c-18-18.2-42.3-31.6-73.1-40.2l0.9-8.5C2784.4,887.1,2808.6,878.3,2829.7,864.6z"/>
					<path class="st0" d="M462.6,615.8H131.4L14.6,1226.3C63.7,1027.8,223.8,811.8,462.6,615.8z"/>
					<path class="st0" d="M1490,1170.7h-324.9l-38.5,55.6H748.7l104.8-146.2h-469l-28.2,146.2H14.6
						c-19.1,99.8-21.3,195.3,14.4,281.5c161.6,391,924.3,445,1703.5,120.6c265-110.3,497.8-250.2,683.3-402.2H1508L1490,1170.7z"/>
					<polygon class="st0" points="1381.4,852.6 1274.5,1009.1 1437.8,1009.1 1387.4,852.6 					"/>
					<path class="st0" d="M949.6,831.3H432.4l-13.7,70.1h489l-27.8,141.9l306.6-427.5h472.8l191.1,568.4l109.9-568.4h718.2
						c70.1,0,121.4,12.4,153.9,37.2c6.3,4.8,11.9,9.9,17,15.4c40.7-119.3,43.4-233.6,1.4-335.2c-161.6-391-924.3-445-1703.5-120.6
						c-265.7,110.5-499,250.8-684.7,403.2h528.1L949.6,831.3z"/>
					<path class="st0" d="M2468.1,779.1h-197.5l-15.4,78.7h197.5c20.5,0,35.6-6,45.3-18c8-9.7,12-19.4,12-29.1
						C2509.9,789.7,2496,779.1,2468.1,779.1z"/>
					<path class="st0" d="M2438.1,986.9h-207.8l-16.2,83.8H2421c22.8,0,39-6.3,48.7-18.8c3.4-4.6,6.3-9.7,8.6-15.4
						c2.3-5.7,3.4-10.8,3.4-15.4C2481.7,998.3,2467.2,986.9,2438.1,986.9z"/>
				</g>
			</g>
			<g>
				<g>
					<path class="st0" d="M2829.7,864.6c18.2-12,31.3-26.8,39.3-44.5s12-39.6,12-65.8c0-34.5-10.6-63.1-31.7-85.9
						c-62.6,183.7-215.4,379.1-433.5,557.9h175.4c108.9,0,183.2-24.5,223.1-73.5c27.9-33.6,41.9-79.2,41.9-136.8
						c0-32.5-9-57.8-26.9-76.1c-18-18.2-42.3-31.6-73.1-40.2l0.9-8.5C2784.4,887.1,2808.6,878.3,2829.7,864.6z"/>
					<path class="st0" d="M462.6,615.8H131.4L14.6,1226.3C63.7,1027.8,223.8,811.8,462.6,615.8z"/>
					<path class="st0" d="M1490,1170.7h-324.9l-38.5,55.6H748.7l104.8-146.2h-469l-28.2,146.2H14.6
						c-19.1,99.8-21.3,195.3,14.4,281.5c161.6,391,924.3,445,1703.5,120.6c265-110.3,497.8-250.2,683.3-402.2H1508L1490,1170.7z"/>
					<polygon class="st0" points="1381.4,852.6 1274.5,1009.1 1437.8,1009.1 1387.4,852.6 					"/>
					<path class="st0" d="M949.6,831.3H432.4l-13.7,70.1h489l-27.8,141.9l306.6-427.5h472.8l191.1,568.4l109.9-568.4h718.2
						c70.1,0,121.4,12.4,153.9,37.2c6.3,4.8,11.9,9.9,17,15.4c40.7-119.3,43.4-233.6,1.4-335.2c-161.6-391-924.3-445-1703.5-120.6
						c-265.7,110.5-499,250.8-684.7,403.2h528.1L949.6,831.3z"/>
					<path class="st0" d="M2468.1,779.1h-197.5l-15.4,78.7h197.5c20.5,0,35.6-6,45.3-18c8-9.7,12-19.4,12-29.1
						C2509.9,789.7,2496,779.1,2468.1,779.1z"/>
					<path class="st0" d="M2438.1,986.9h-207.8l-16.2,83.8H2421c22.8,0,39-6.3,48.7-18.8c3.4-4.6,6.3-9.7,8.6-15.4
						c2.3-5.7,3.4-10.8,3.4-15.4C2481.7,998.3,2467.2,986.9,2438.1,986.9z"/>
				</g>
				<g>
					<path class="st0" d="M2829.7,864.6c18.2-12,31.3-26.8,39.3-44.5s12-39.6,12-65.8c0-34.5-10.6-63.1-31.7-85.9
						c-62.6,183.7-215.4,379.1-433.5,557.9h175.4c108.9,0,183.2-24.5,223.1-73.5c27.9-33.6,41.9-79.2,41.9-136.8
						c0-32.5-9-57.8-26.9-76.1c-18-18.2-42.3-31.6-73.1-40.2l0.9-8.5C2784.4,887.1,2808.6,878.3,2829.7,864.6z"/>
					<path class="st0" d="M462.6,615.8H131.4L14.6,1226.3C63.7,1027.8,223.8,811.8,462.6,615.8z"/>
					<path class="st0" d="M1490,1170.7h-324.9l-38.5,55.6H748.7l104.8-146.2h-469l-28.2,146.2H14.6
						c-19.1,99.8-21.3,195.3,14.4,281.5c161.6,391,924.3,445,1703.5,120.6c265-110.3,497.8-250.2,683.3-402.2H1508L1490,1170.7z"/>
					<polygon class="st0" points="1381.4,852.6 1274.5,1009.1 1437.8,1009.1 1387.4,852.6 					"/>
					<path class="st0" d="M949.6,831.3H432.4l-13.7,70.1h489l-27.8,141.9l306.6-427.5h472.8l191.1,568.4l109.9-568.4h718.2
						c70.1,0,121.4,12.4,153.9,37.2c6.3,4.8,11.9,9.9,17,15.4c40.7-119.3,43.4-233.6,1.4-335.2c-161.6-391-924.3-445-1703.5-120.6
						c-265.7,110.5-499,250.8-684.7,403.2h528.1L949.6,831.3z"/>
					<path class="st0" d="M2468.1,779.1h-197.5l-15.4,78.7h197.5c20.5,0,35.6-6,45.3-18c8-9.7,12-19.4,12-29.1
						C2509.9,789.7,2496,779.1,2468.1,779.1z"/>
					<path class="st0" d="M2438.1,986.9h-207.8l-16.2,83.8H2421c22.8,0,39-6.3,48.7-18.8c3.4-4.6,6.3-9.7,8.6-15.4
						c2.3-5.7,3.4-10.8,3.4-15.4C2481.7,998.3,2467.2,986.9,2438.1,986.9z"/>
				</g>
			</g>
		</g>
	</g>
</g>
</svg>
