<svg width="321" height="56" viewBox="0 0 321 56" fill="none" xmlns="http://www.w3.org/2000/svg">
<path d="M32.7247 50.3139L23.2758 56L13.8177 50.3139L23.2679 44.6264L32.7247 50.3139Z" fill="white"/>
<path d="M46.5516 14.0041V42.0123L36.5079 48.0498C36.1392 47.3736 35.5945 46.806 34.9294 46.3969L13.8256 33.7039V30.2887H32.7339V33.7039L27.6354 36.7678L31.9963 39.39L34.9058 37.6373C36.2521 36.819 37.0855 35.3239 37.0856 33.6957V22.3221C37.0856 20.6939 36.252 19.1906 34.9058 18.3805L27.6354 14.0041L34.9215 9.61953H34.9294C35.5945 9.21874 36.1313 8.64285 36.5079 7.9666L46.5516 14.0041Z" fill="white"/>
<path d="M10.0423 7.9666C10.411 8.64301 10.9569 9.21035 11.6222 9.61953L32.7247 22.3043V25.7209H13.8177V22.3043L18.907 19.2404L14.5474 16.6182L11.6379 18.3723C10.2917 19.1906 9.4583 20.6844 9.45808 22.3125V33.6875C9.4583 35.3156 10.2917 36.8178 11.6379 37.6277L18.907 42.0041L11.6222 46.3887C10.9569 46.7895 10.419 47.3652 10.0423 48.0416L0 42.0041V14.0041L10.0423 7.9666Z" fill="white"/>
<path d="M209.553 28.1258C209.553 32.0252 211.645 34.5557 215.788 34.5557C219.932 34.5555 221.991 32.0334 221.991 28.1258V16.7932H228.259V28.6344C228.259 35.4485 223.803 39.9327 215.788 39.9328C207.773 39.9328 203.284 35.4486 203.284 28.6344V16.7932H209.553V28.1258Z" fill="white"/>
<path d="M78.4994 27.5488L86.6423 16.7932H93.3114V39.1986H87.0667V24.8937L78.4994 35.8326H78.1942L69.6269 24.8937V39.1986H63.5748V16.7932H70.4195L78.4994 27.5488Z" fill="white"/>
<path d="M120.393 21.7875H103.963V25.4693H117.508V30.2381H103.963V34.2043H120.729V39.1986H97.7915V16.7932H120.393V21.7875Z" fill="white"/>
<path d="M146.274 22.0117H137.337V39.1986H131.069V22.0117H122.197V16.7932H146.274V22.0117Z" fill="white"/>
<path fill-rule="evenodd" clip-rule="evenodd" d="M171.753 39.1986H165.085L163.058 34.9057H151.26L149.232 39.1986H142.66L153.776 16.7932H160.637L171.753 39.1986ZM153.407 30.2627H160.878L157.159 22.3303L153.407 30.2627Z" fill="white"/>
<path d="M179.952 25.1439H192.849V16.7932H199.116V39.1986H192.849V30.5211H179.952V39.1986H173.685V16.7932H179.952V25.1439Z" fill="white"/>
<path d="M247.351 27.5488L255.486 16.7932H262.155V39.1986H255.92V24.8937L247.351 35.8326H247.038L238.471 24.8937V39.1986H232.42V16.7932H239.272L247.351 27.5488Z" fill="white"/>
<path fill-rule="evenodd" clip-rule="evenodd" d="M293.237 39.1986H286.568L284.54 34.9057H272.742L270.715 39.1986H264.142L275.259 16.7932H282.121L293.237 39.1986ZM274.891 30.2627H282.36L278.641 22.3303L274.891 30.2627Z" fill="white"/>
<path d="M301.804 16.7932L314.549 30.4883V16.7932H320.6V39.1986H315.102L301.22 24.4754V39.1986H295.168V16.7932H301.804Z" fill="white"/>
<path d="M32.7247 5.6875L23.2758 11.3736L13.8177 5.6875L23.2758 0L32.7247 5.6875Z" fill="white"/>
</svg>
